<?xml version="1.0" encoding="UTF-8" standalone="no"?>
<svg
   xmlns:dc="http://purl.org/dc/elements/1.1/"
   xmlns:cc="http://creativecommons.org/ns#"
   xmlns:rdf="http://www.w3.org/1999/02/22-rdf-syntax-ns#"
   xmlns:svg="http://www.w3.org/2000/svg"
   xmlns="http://www.w3.org/2000/svg"
   xmlns:xlink="http://www.w3.org/1999/xlink"
   xmlns:sodipodi="http://sodipodi.sourceforge.net/DTD/sodipodi-0.dtd"
   xmlns:inkscape="http://www.inkscape.org/namespaces/inkscape"
   viewBox="0 0 128 128"
   version="1.1"
   id="svg100"
   sodipodi:docname="jeet-original-wordmark.svg"
   inkscape:version="0.92.4 (5da689c313, 2019-01-14)">
  <metadata
     id="metadata104">
    <rdf:RDF>
      <cc:Work
         rdf:about="">
        <dc:format>image/svg+xml</dc:format>
        <dc:type
           rdf:resource="http://purl.org/dc/dcmitype/StillImage" />
      </cc:Work>
    </rdf:RDF>
  </metadata>
  <sodipodi:namedview
     pagecolor="#ffffff"
     bordercolor="#666666"
     borderopacity="1"
     objecttolerance="10"
     gridtolerance="10"
     guidetolerance="10"
     inkscape:pageopacity="0"
     inkscape:pageshadow="2"
     inkscape:window-width="1366"
     inkscape:window-height="745"
     id="namedview102"
     showgrid="false"
     inkscape:zoom="1.84375"
     inkscape:cx="64"
     inkscape:cy="85.694915"
     inkscape:window-x="-8"
     inkscape:window-y="-8"
     inkscape:window-maximized="1"
     inkscape:current-layer="svg100" />
  <g
     id="g4"
     style="fill:#ff664a">
    <path
       d="m 53.635,90.29 c 9.072,0 12.84,4.92 12.52,10.99 -0.19,7.282 -7.35,11.686 -14.06,11.69 -4.146,0 -5.784,-1.68 -6.203,-2.957 -0.24,-0.73 -1.056,-0.486 -1.074,0.145 -0.104,3.742 1.98,8.304 8.433,8.304 4.92,0 8.88,-2.81 8.88,-2.81 1.343,1.34 1.853,2.81 1.79,4.47 -0.255,3.514 -4.92,6.582 -12.457,6.582 -11.946,0 -16.418,-8.242 -15.907,-16.994 0.64,-11.37 7.73,-19.42 18.08,-19.42 M 49.8,106.518 c 3.705,0 7.09,-1.405 7.155,-4.792 0.064,-2.108 -1.47,-3.577 -4.09,-3.577 -4.28,0 -6.643,3.45 -7.218,6.39 -0.065,0.51 -0.193,1.212 -0.193,1.212 0.32,0.128 1.79,0.767 4.345,0.767 M 85.577,90.29 c 9.072,0 12.84,4.92 12.52,10.99 -0.19,7.282 -7.35,11.686 -14.06,11.69 -4.146,0 -5.784,-1.68 -6.203,-2.957 -0.24,-0.73 -1.056,-0.486 -1.074,0.145 -0.104,3.742 1.98,8.304 8.433,8.304 4.92,0 8.88,-2.81 8.88,-2.81 1.342,1.34 1.852,2.81 1.79,4.47 -0.256,3.514 -4.92,6.582 -12.458,6.582 -11.946,0 -16.418,-8.242 -15.907,-16.994 0.64,-11.37 7.73,-19.42 18.08,-19.42 m -3.834,16.227 c 3.705,0 7.09,-1.405 7.155,-4.792 0.063,-2.108 -1.47,-3.577 -4.09,-3.577 -4.28,0 -6.644,3.45 -7.22,6.39 -0.063,0.51 -0.19,1.212 -0.19,1.212 0.32,0.128 1.79,0.767 4.344,0.767 m 21.65,-7.475 c -4.518,0 -4.09,-2.457 -4.124,-3.87 -0.036,-1.467 1.46,-3.348 2.89,-3.623 4.14,-0.796 4.274,-4.136 4.85,-5.988 0.382,-1.15 0.957,-1.597 2.043,-1.597 h 3.194 c 1.342,0 2.3,0.895 2.045,2.62 a 76.994,76.994 0 0 1 -0.64,4.343 c 1.343,0.063 1.006,0 3.18,0 3.22,0 4.47,1.697 4.46,4.32 -0.005,1.48 -1.458,3.73 -4.6,3.73 h -4.06 c -0.767,5.174 -1.725,12.01 -2.172,15.906 -0.255,2.683 0.932,3.302 2.784,3.302 1.342,0.064 3.365,-0.996 4.083,-1.574 2.826,3.317 2.094,10.09 -7.046,10.09 -6.643,0 -9.845,-5.093 -9.08,-11.673 0.448,-3.578 2.193,-15.988 2.193,-15.988 M 32.91,82.624 H 22.414 c -1.277,0 -5.06,0.37 -5.32,4.265 -0.23,3.47 1.528,5.08 5.462,5.08 2.022,0 4.147,-1.476 5.084,-2.012 1.08,-0.617 1.688,0.21 0.926,0.865 -1.42,1.223 -2.732,2.61 -3.537,7.002 l -2.132,13.034 c -0.64,4.407 -2.555,6.515 -5.75,6.515 -2.874,0 -4.896,-1.613 -6.593,-3.85 -3.393,1.08 -5.167,5.786 -2.687,8.91 1.13,1.422 3.467,4.268 9.408,4.268 6.16,0 13.178,-2.996 14.913,-14.885 0.847,-5.81 3.21,-21.018 3.593,-23.7 0.32,-2.427 0.704,-5.494 -2.873,-5.494"
       id="path2"
       inkscape:connector-curvature="0" />
  </g>
  <defs
     id="defs7">
    <path
       id="a"
       d="M74.773 38.578a14.728 14.728 0 0 1-.47 2.37c-.094 5.356-4.308 9.706-9.61 10.016a14.71 14.71 0 0 1-2.956.65l-5.86 5.86 17.22 17.222 5.46-5.46c.422-7.52 6.444-13.54 13.963-13.962l4.582-4.582-17.222-17.22-5.107 5.106z" />
  </defs>
  <clipPath
     id="b">
    <use
       xlink:href="#a"
       overflow="visible"
       id="use9" />
  </clipPath>
  <linearGradient
     id="c"
     gradientUnits="userSpaceOnUse"
     x1="-284.432"
     y1="-141.754"
     x2="-284.009"
     y2="-141.754"
     gradientTransform="rotate(130.9 -7705.164 -218.84) scale(44.3)">
    <stop
       offset="0"
       stop-color="#09e09c"
       id="stop12" />
    <stop
       offset="1"
       stop-color="#00bfff"
       id="stop14" />
  </linearGradient>
  <path
     clip-path="url(#b)"
     fill="url(#c)"
     d="M117.5 51.13L79.443 95.096 35.477 57.037l38.06-43.965z"
     id="path17" />
  <defs
     id="defs20">
    <path
       id="d"
       d="M31.353 50.173l5.107 5.107c6.835.778 12.258 6.2 13.037 13.036l5.86 5.86 17.222-17.22-5.462-5.46a14.743 14.743 0 0 1-3.116-.516c-5.395-.046-9.79-4.272-10.11-9.598a14.805 14.805 0 0 1-.736-3.848l-4.582-4.582-17.22 17.22z" />
  </defs>
  <clipPath
     id="e">
    <use
       xlink:href="#d"
       overflow="visible"
       id="use22" />
  </clipPath>
  <linearGradient
     id="f"
     gradientUnits="userSpaceOnUse"
     x1="-279.176"
     y1="-131.559"
     x2="-278.753"
     y2="-131.559"
     gradientTransform="matrix(29.5 31 -31 29.5 4203.172 12582.555)">
    <stop
       offset="0"
       stop-color="#ffc800"
       id="stop25" />
    <stop
       offset="1"
       stop-color="#00bfff"
       id="stop27" />
  </linearGradient>
  <path
     clip-path="url(#e)"
     fill="url(#f)"
     d="M52.987 12.365l40.178 42.22-42.22 40.18-40.18-42.222z"
     id="path30" />
  <g
     id="g45">
    <defs
       id="defs33">
      <path
         id="g"
         d="m 49.63,12.604 c -0.42,7.518 -6.442,13.54 -13.96,13.962 l -4.584,4.582 17.22,17.22 5.108,-5.106 c 0.09,-0.8 0.248,-1.582 0.462,-2.338 0,-0.053 -0.004,-0.105 -0.004,-0.158 0,-5.643 4.574,-10.217 10.218,-10.217 0.166,0 0.33,0.004 0.495,0.01 0.608,-0.15 1.23,-0.262 1.866,-0.334 l 5.862,-5.86 -17.22,-17.223 -5.46,5.46 z"
         inkscape:connector-curvature="0" />
    </defs>
    <clipPath
       id="h">
      <use
         xlink:href="#g"
         overflow="visible"
         id="use35"
         style="overflow:visible"
         x="0"
         y="0"
         width="100%"
         height="100%" />
    </clipPath>
    <linearGradient
       id="i"
       gradientUnits="userSpaceOnUse"
       x1="-291.496"
       y1="-124.258"
       x2="-291.073"
       y2="-124.258"
       gradientTransform="matrix(29,-29.5,29.5,29,12164.318,-4961.38)">
      <stop
         offset="0"
         stop-color="#ffc800"
         id="stop38" />
      <stop
         offset="1"
         stop-color="#ff664a"
         id="stop40" />
    </linearGradient>
    <path
       clip-path="url(#h)"
       d="m 10.477,28.108 40.87,-41.574 41.575,40.87 -40.87,41.574 z"
       id="path43"
       inkscape:connector-curvature="0"
       style="fill:url(#i)" />
  </g>
  <g
     id="g60">
    <defs
       id="defs48">
      <path
         id="j"
         d="m 55.315,24.888 5.46,5.46 c 0.72,0.04 1.425,0.133 2.114,0.272 0.393,-0.046 0.794,-0.073 1.2,-0.073 5.643,0 10.218,4.574 10.218,10.217 0,0.22 -0.01,0.44 -0.023,0.657 0.24,0.93 0.397,1.897 0.453,2.89 l 4.582,4.58 17.22,-17.22 -5.107,-5.106 C 84.597,25.787 79.174,20.365 78.395,13.528 l -5.86,-5.86 z"
         inkscape:connector-curvature="0" />
    </defs>
    <clipPath
       id="k">
      <use
         xlink:href="#j"
         overflow="visible"
         id="use50"
         style="overflow:visible"
         x="0"
         y="0"
         width="100%"
         height="100%" />
    </clipPath>
    <linearGradient
       id="l"
       gradientUnits="userSpaceOnUse"
       x1="-295.91599"
       y1="-137.45799"
       x2="-295.49301"
       y2="-137.45799"
       gradientTransform="matrix(-34.4834,-33.533641,33.533641,-34.4834,-5514.1824,-14621.431)">
      <stop
         offset="0"
         stop-color="#09e09c"
         id="stop53" />
      <stop
         offset="1"
         stop-color="#ff664a"
         id="stop55" />
    </linearGradient>
    <path
       clip-path="url(#k)"
       d="m 76.533,69.495 -41.82,-40.61 40.608,-41.82 41.824,40.608 z"
       id="path58"
       inkscape:connector-curvature="0"
       style="fill:url(#l)" />
  </g>
  <path
     fill="#FFC800"
     d="M38.69 55.596c-8.19 0-14.83-6.64-14.83-14.83 0-8.192 6.64-14.832 14.83-14.832s14.83 6.64 14.83 14.83c0 8.192-6.64 14.832-14.83 14.832"
     id="path62" />
  <path
     fill="#FF664A"
     d="M63.702 30.584c-8.19 0-14.83-6.64-14.83-14.83 0-8.19 6.64-14.83 14.83-14.83 8.19 0 14.83 6.64 14.83 14.83 0 8.19-6.64 14.83-14.83 14.83"
     id="path64" />
  <path
     fill="#00BFFF"
     d="M64.09 80.896c-8.19 0-14.83-6.64-14.83-14.83 0-8.19 6.64-14.83 14.83-14.83s14.83 6.64 14.83 14.83c0 8.19-6.64 14.83-14.83 14.83"
     id="path66" />
  <path
     fill="#09E09C"
     d="M89.31 56.093c-8.19 0-14.83-6.64-14.83-14.83 0-8.19 6.64-14.83 14.83-14.83s14.83 6.64 14.83 14.83c0 8.19-6.64 14.83-14.83 14.83"
     id="path68" />
</svg>
