<?xml version="1.0" encoding="UTF-8" standalone="no"?>
<svg
   xmlns:dc="http://purl.org/dc/elements/1.1/"
   xmlns:cc="http://creativecommons.org/ns#"
   xmlns:rdf="http://www.w3.org/1999/02/22-rdf-syntax-ns#"
   xmlns:svg="http://www.w3.org/2000/svg"
   xmlns="http://www.w3.org/2000/svg"
   xmlns:xlink="http://www.w3.org/1999/xlink"
   xmlns:sodipodi="http://sodipodi.sourceforge.net/DTD/sodipodi-0.dtd"
   xmlns:inkscape="http://www.inkscape.org/namespaces/inkscape"
   viewBox="0 0 128 128"
   version="1.1"
   id="svg100"
   sodipodi:docname="jeet-original.svg"
   inkscape:version="0.92.4 (5da689c313, 2019-01-14)">
  <metadata
     id="metadata104">
    <rdf:RDF>
      <cc:Work
         rdf:about="">
        <dc:format>image/svg+xml</dc:format>
        <dc:type
           rdf:resource="http://purl.org/dc/dcmitype/StillImage" />
        <dc:title />
      </cc:Work>
    </rdf:RDF>
  </metadata>
  <sodipodi:namedview
     pagecolor="#ffffff"
     bordercolor="#666666"
     borderopacity="1"
     objecttolerance="10"
     gridtolerance="10"
     guidetolerance="10"
     inkscape:pageopacity="0"
     inkscape:pageshadow="2"
     inkscape:window-width="1366"
     inkscape:window-height="745"
     id="namedview102"
     showgrid="false"
     inkscape:zoom="1.3037281"
     inkscape:cx="-62.355035"
     inkscape:cy="104.96923"
     inkscape:window-x="-8"
     inkscape:window-y="-8"
     inkscape:window-maximized="1"
     inkscape:current-layer="svg100" />
  <defs
     id="defs7">
    <path
       id="a"
       d="M74.773 38.578a14.728 14.728 0 0 1-.47 2.37c-.094 5.356-4.308 9.706-9.61 10.016a14.71 14.71 0 0 1-2.956.65l-5.86 5.86 17.22 17.222 5.46-5.46c.422-7.52 6.444-13.54 13.963-13.962l4.582-4.582-17.222-17.22-5.107 5.106z" />
  </defs>
  <clipPath
     id="b">
    <use
       xlink:href="#a"
       overflow="visible"
       id="use9" />
  </clipPath>
  <linearGradient
     id="c"
     gradientUnits="userSpaceOnUse"
     x1="-284.432"
     y1="-141.754"
     x2="-284.009"
     y2="-141.754"
     gradientTransform="matrix(-29.005018,33.484309,-33.484309,-29.005018,-12915.46,5461.8515)">
    <stop
       offset="0"
       stop-color="#09e09c"
       id="stop12" />
    <stop
       offset="1"
       stop-color="#00bfff"
       id="stop14" />
  </linearGradient>
  <path
     clip-path="url(#b)"
     d="M 117.5,51.13 79.443,95.096 35.477,57.037 73.537,13.072 Z"
     id="path17"
     style="fill:url(#c)"
     inkscape:connector-curvature="0"
     transform="matrix(1.5695067,0,0,1.5755514,-36.599363,-0.53794491)" />
  <defs
     id="defs20">
    <path
       id="d"
       d="M31.353 50.173l5.107 5.107c6.835.778 12.258 6.2 13.037 13.036l5.86 5.86 17.222-17.22-5.462-5.46a14.743 14.743 0 0 1-3.116-.516c-5.395-.046-9.79-4.272-10.11-9.598a14.805 14.805 0 0 1-.736-3.848l-4.582-4.582-17.22 17.22z" />
  </defs>
  <clipPath
     id="e">
    <use
       xlink:href="#d"
       overflow="visible"
       id="use22" />
  </clipPath>
  <linearGradient
     id="f"
     gradientUnits="userSpaceOnUse"
     x1="-279.176"
     y1="-131.559"
     x2="-278.753"
     y2="-131.559"
     gradientTransform="matrix(29.5,31,-31,29.5,4203.172,12582.555)">
    <stop
       offset="0"
       stop-color="#ffc800"
       id="stop25" />
    <stop
       offset="1"
       stop-color="#00bfff"
       id="stop27" />
  </linearGradient>
  <path
     clip-path="url(#e)"
     d="m 52.987,12.365 40.178,42.22 -42.22,40.18 -40.18,-42.222 z"
     id="path30"
     style="fill:url(#f)"
     inkscape:connector-curvature="0"
     transform="matrix(1.5695067,0,0,1.5755514,-36.599363,-0.53794491)" />
  <g
     id="g45"
     transform="matrix(1.5695067,0,0,1.5755514,-36.599363,-0.53794491)">
    <defs
       id="defs33">
      <path
         id="g"
         d="m 49.63,12.604 c -0.42,7.518 -6.442,13.54 -13.96,13.962 l -4.584,4.582 17.22,17.22 5.108,-5.106 c 0.09,-0.8 0.248,-1.582 0.462,-2.338 0,-0.053 -0.004,-0.105 -0.004,-0.158 0,-5.643 4.574,-10.217 10.218,-10.217 0.166,0 0.33,0.004 0.495,0.01 0.608,-0.15 1.23,-0.262 1.866,-0.334 l 5.862,-5.86 -17.22,-17.223 -5.46,5.46 z"
         inkscape:connector-curvature="0" />
    </defs>
    <clipPath
       id="h">
      <use
         xlink:href="#g"
         overflow="visible"
         id="use35"
         style="overflow:visible"
         x="0"
         y="0"
         width="100%"
         height="100%" />
    </clipPath>
    <linearGradient
       id="i"
       gradientUnits="userSpaceOnUse"
       x1="-291.496"
       y1="-124.258"
       x2="-291.073"
       y2="-124.258"
       gradientTransform="matrix(29,-29.5,29.5,29,12164.318,-4961.38)">
      <stop
         offset="0"
         stop-color="#ffc800"
         id="stop38" />
      <stop
         offset="1"
         stop-color="#ff664a"
         id="stop40" />
    </linearGradient>
    <path
       clip-path="url(#h)"
       d="m 10.477,28.108 40.87,-41.574 41.575,40.87 -40.87,41.574 z"
       id="path43"
       inkscape:connector-curvature="0"
       style="fill:url(#i)" />
  </g>
  <g
     id="g60"
     transform="matrix(1.5695067,0,0,1.5755514,-36.599363,-0.53794491)">
    <defs
       id="defs48">
      <path
         id="j"
         d="m 55.315,24.888 5.46,5.46 c 0.72,0.04 1.425,0.133 2.114,0.272 0.393,-0.046 0.794,-0.073 1.2,-0.073 5.643,0 10.218,4.574 10.218,10.217 0,0.22 -0.01,0.44 -0.023,0.657 0.24,0.93 0.397,1.897 0.453,2.89 l 4.582,4.58 17.22,-17.22 -5.107,-5.106 C 84.597,25.787 79.174,20.365 78.395,13.528 l -5.86,-5.86 z"
         inkscape:connector-curvature="0" />
    </defs>
    <clipPath
       id="k">
      <use
         xlink:href="#j"
         overflow="visible"
         id="use50"
         style="overflow:visible"
         x="0"
         y="0"
         width="100%"
         height="100%" />
    </clipPath>
    <linearGradient
       id="l"
       gradientUnits="userSpaceOnUse"
       x1="-295.91599"
       y1="-137.45799"
       x2="-295.49301"
       y2="-137.45799"
       gradientTransform="matrix(-34.4834,-33.533641,33.533641,-34.4834,-5514.1824,-14621.431)">
      <stop
         offset="0"
         stop-color="#09e09c"
         id="stop53" />
      <stop
         offset="1"
         stop-color="#ff664a"
         id="stop55" />
    </linearGradient>
    <path
       clip-path="url(#k)"
       d="m 76.533,69.495 -41.82,-40.61 40.608,-41.82 41.824,40.608 z"
       id="path58"
       inkscape:connector-curvature="0"
       style="fill:url(#l)" />
  </g>
  <path
     d="m 24.124852,87.056413 c -12.85426,0 -23.27578455,-10.461661 -23.27578455,-23.365427 0,-12.906918 10.42152455,-23.368579 23.27578455,-23.368579 12.85426,0 23.275785,10.461661 23.275785,23.365427 0,12.906918 -10.421525,23.368579 -23.275785,23.368579"
     id="path62"
     inkscape:connector-curvature="0"
     style="fill:#ffc800;stroke-width:1.5725261" />
  <path
     d="m 63.381354,47.648721 c -12.85426,0 -23.275785,-10.461662 -23.275785,-23.365428 0,-12.903766 10.421525,-23.36542791 23.275785,-23.36542791 12.85426,0 23.275783,10.46166191 23.275783,23.36542791 0,12.903766 -10.421523,23.365428 -23.275783,23.365428"
     id="path64"
     inkscape:connector-curvature="0"
     style="fill:#ff664a;stroke-width:1.5725261" />
  <path
     d="m 63.990323,126.91787 c -12.85426,0 -23.275785,-10.46167 -23.275785,-23.36543 0,-12.903769 10.421525,-23.365431 23.275785,-23.365431 12.85426,0 23.275784,10.461662 23.275784,23.365431 0,12.90376 -10.421524,23.36543 -23.275784,23.36543"
     id="path66"
     inkscape:connector-curvature="0"
     style="fill:#00bfff;stroke-width:1.5725261" />
  <path
     d="m 103.57329,87.839463 c -12.854263,0 -23.275793,-10.461662 -23.275793,-23.365428 0,-12.903767 10.42153,-23.365428 23.275793,-23.365428 12.85426,0 23.27578,10.461661 23.27578,23.365428 0,12.903766 -10.42152,23.365428 -23.27578,23.365428"
     id="path68"
     inkscape:connector-curvature="0"
     style="fill:#09e09c;stroke-width:1.5725261" />
</svg>
